<?xml version="1.0" standalone="no"?>
<!DOCTYPE svg PUBLIC "-//W3C//DTD SVG 20010904//EN"
 "http://www.w3.org/TR/2001/REC-SVG-20010904/DTD/svg10.dtd">
<svg version="1.0" xmlns="http://www.w3.org/2000/svg"
 width="3125.000000pt" height="1875.000000pt" viewBox="0 0 3125.000000 1875.000000"
 preserveAspectRatio="xMidYMid meet">

<g transform="translate(0.000000,1875.000000) scale(0.100000,-0.100000)"
fill="#000000" stroke="none">
<path d="M1040 9910 l0 -3610 725 0 725 0 0 360 0 360 -360 0 -360 0 0 2885 0
2885 360 0 360 0 0 365 0 365 -725 0 -725 0 0 -3610z"/>
<path d="M28760 13155 l0 -365 360 0 360 0 0 -2885 0 -2885 -360 0 -360 0 0
-360 0 -360 725 0 725 0 0 3610 0 3610 -725 0 -725 0 0 -365z"/>
<path d="M22615 12787 c-3 -6 -4 -170 -3 -362 l3 -350 363 -3 362 -2 0 365 0
365 -360 0 c-280 0 -362 -3 -365 -13z"/>
<path d="M25690 9905 l0 -2895 360 0 360 0 0 2895 0 2895 -360 0 -360 0 0
-2895z"/>
<path d="M6360 11419 c-293 -30 -566 -129 -815 -296 -371 -250 -675 -636 -800
-1018 -51 -154 -75 -286 -86 -474 -6 -99 -9 -659 -7 -1391 l3 -1225 365 0 365
0 5 1365 5 1365 27 97 c101 367 388 674 742 794 263 90 593 76 840 -35 281
-127 533 -404 631 -694 56 -166 55 -149 55 -1579 l0 -1318 365 0 365 0 0 1299
c0 801 -4 1339 -10 1402 -44 446 -235 828 -587 1170 -175 170 -329 280 -525
374 -291 139 -617 196 -938 164z"/>
<path d="M18010 11419 c-439 -36 -847 -201 -1195 -484 -181 -147 -381 -367
-505 -556 -334 -508 -434 -1174 -269 -1799 174 -659 703 -1254 1330 -1496 438
-169 1014 -179 1464 -24 298 103 530 248 768 479 l117 114 0 -82 c0 -630 -333
-1225 -826 -1476 -386 -197 -936 -203 -1331 -15 -229 109 -448 300 -603 528
-15 21 -18 20 -315 -174 -165 -108 -303 -199 -307 -203 -14 -13 157 -227 276
-347 305 -305 716 -531 1131 -623 376 -83 801 -60 1174 65 226 75 425 181 631
337 113 86 332 300 420 412 276 350 432 735 470 1165 8 86 10 445 8 1155 -4
924 -6 1041 -22 1135 -74 448 -243 798 -551 1144 -480 539 -1146 805 -1865
745z m460 -745 c249 -41 484 -150 690 -321 232 -193 400 -429 484 -684 55
-166 67 -237 73 -439 6 -213 -12 -351 -67 -520 -168 -512 -635 -917 -1173
-1017 -128 -24 -418 -24 -542 0 -462 90 -855 384 -1079 808 -179 340 -211 782
-85 1164 121 364 420 701 784 882 269 135 593 179 915 127z"/>
<path d="M10407 11353 c-12 -11 -8 -2613 4 -2721 15 -139 35 -231 79 -364 90
-272 229 -494 450 -722 274 -282 549 -451 875 -536 186 -48 244 -55 480 -54
199 0 232 3 346 27 363 77 673 250 955 533 279 279 452 588 536 959 l22 100 3
1393 4 1392 -360 0 -360 0 -4 -1347 c-4 -1471 0 -1385 -61 -1567 -55 -162
-133 -283 -276 -427 -194 -195 -386 -296 -637 -334 -242 -37 -464 -4 -678 99
-274 132 -500 385 -595 665 -57 169 -53 81 -59 1551 l-6 1355 -356 3 c-195 1
-358 -1 -362 -5z"/>
<path d="M22615 11348 c-3 -7 -4 -985 -3 -2173 l3 -2160 363 -3 362 -2 -2
2172 -3 2173 -358 3 c-281 2 -359 0 -362 -10z"/>
</g>
</svg>
